<svg width="34" height="34" viewBox="0 0 34 34" fill="none" xmlns="http://www.w3.org/2000/svg">
<path d="M32.75 9.63889V23.8611C32.75 26.2186 31.8135 28.4795 30.1465 30.1465C28.4795 31.8135 26.2186 32.75 23.8611 32.75H9.63889C7.28141 32.75 5.02049 31.8135 3.3535 30.1465C1.68651 28.4795 0.75 26.2186 0.75 23.8611V9.63889C0.75 7.28141 1.68651 5.02049 3.3535 3.3535C5.02049 1.68651 7.28141 0.75 9.63889 0.75H23.8611C26.2186 0.75 28.4795 1.68651 30.1465 3.3535C31.8135 5.02049 32.75 7.28141 32.75 9.63889Z" fill="#D7B56D" stroke="#D7B56D" stroke-width="1.5" stroke-linecap="round" stroke-linejoin="round"/>
<path d="M13.1944 16.7497C12.1396 16.7497 11.1084 17.0625 10.2314 17.6485C9.35432 18.2345 8.67073 19.0675 8.26706 20.042C7.86339 21.0166 7.75778 22.0889 7.96356 23.1235C8.16935 24.1581 8.6773 25.1084 9.42318 25.8542C10.1691 26.6001 11.1194 27.1081 12.1539 27.3139C13.1885 27.5196 14.2609 27.414 15.2354 27.0104C16.2099 26.6067 17.0429 25.9231 17.6289 25.046C18.215 24.169 18.5278 23.1378 18.5278 22.083V6.08301C19.1198 7.86079 21.3722 11.4163 25.6389 11.4163" fill="#D7B56D"/>
<path d="M13.1944 16.7497C12.1396 16.7497 11.1084 17.0625 10.2314 17.6485C9.35432 18.2345 8.67073 19.0675 8.26706 20.042C7.86339 21.0166 7.75778 22.0889 7.96356 23.1235C8.16935 24.1581 8.6773 25.1084 9.42318 25.8542C10.1691 26.6001 11.1194 27.1081 12.1539 27.3139C13.1885 27.5196 14.2609 27.414 15.2354 27.0104C16.2099 26.6067 17.0429 25.9231 17.6289 25.046C18.215 24.169 18.5278 23.1378 18.5278 22.083V6.08301C19.1198 7.86079 21.3722 11.4163 25.6389 11.4163" stroke="white" stroke-width="3.5" stroke-linecap="square" stroke-linejoin="round"/>
</svg>
