<?xml version="1.0" encoding="UTF-8" standalone="no"?>
<svg
   width="32"
   height="32"
   viewBox="0 0 32 32"
   fill="none"
   version="1.1"
   id="svg1"
   sodipodi:docname="icon-booksy.svg"
   xml:space="preserve"
   inkscape:version="1.4.2 (f4327f4, 2025-05-13)"
   xmlns:inkscape="http://www.inkscape.org/namespaces/inkscape"
   xmlns:sodipodi="http://sodipodi.sourceforge.net/DTD/sodipodi-0.dtd"
   xmlns="http://www.w3.org/2000/svg"
   xmlns:svg="http://www.w3.org/2000/svg"><defs
     id="defs1" /><sodipodi:namedview
     id="namedview1"
     pagecolor="#ffffff"
     bordercolor="#000000"
     borderopacity="0.25"
     inkscape:showpageshadow="2"
     inkscape:pageopacity="0.0"
     inkscape:pagecheckerboard="0"
     inkscape:deskcolor="#d1d1d1"
     inkscape:zoom="8.9161746"
     inkscape:cx="5.9442533"
     inkscape:cy="23.272312"
     inkscape:window-width="1536"
     inkscape:window-height="889"
     inkscape:window-x="1912"
     inkscape:window-y="-8"
     inkscape:window-maximized="1"
     inkscape:current-layer="svg1" /><path
     d="m 17.6448,0 c 1.7999,0.00479975 2.7135,0.0143993 3.5022,0.0367981 l 0.3104,0.0111994 c 0.3584,0.0127993 0.712,0.0287985 1.1392,0.0479975 1.7023,0.079996 2.8638,0.348782 3.883,0.743962 1.0559,0.406383 1.9455,0.956753 2.835,1.844703 0.8136,0.7998 1.4431,1.76725 1.8447,2.83506 0.3952,1.01915 0.664,2.18069 0.744,3.8846 0.0192,0.42558 0.0352,0.77918 0.048,1.13918 l 0.0096,0.3103 c 0.024,0.7872 0.0336,1.7008 0.0368,3.5007 l 0.0016,1.1935 v 2.0959 c 0.0039,1.167 -0.0084,2.334 -0.0368,3.5006 l -0.0096,0.3104 c -0.0128,0.36 -0.0288,0.7136 -0.048,1.1391 -0.08,1.704 -0.352,2.8639 -0.7456,3.8846 -0.4005,1.0684 -1.0301,2.0361 -1.8447,2.8351 -0.8,0.8133 -1.7674,1.4427 -2.835,1.8447 -1.0192,0.3952 -2.1807,0.664 -3.883,0.744 -0.3797,0.0178 -0.7594,0.0338 -1.1392,0.048 L 21.147,31.96 c -0.7887,0.0224 -1.7023,0.0336 -3.5022,0.0368 l -1.1935,0.0016 H 14.357 c -1.1675,0.004 -2.3351,-0.0083 -3.5022,-0.0368 L 10.5444,31.952 C 10.1646,31.9376 9.78486,31.921 9.40524,31.9024 7.70293,31.8224 6.54139,31.5536 5.52064,31.1584 4.45297,30.7574 3.48589,30.1278 2.68719,29.3137 1.8729,28.5142 1.24282,27.5467 0.84088,26.4786 0.4457,25.4595 0.176914,24.298 0.0969181,22.594 0.0790932,22.2144 0.0630938,21.8347 0.0489207,21.4549 L 0.0409213,21.1445 C 0.011438,19.9779 -0.00189604,18.8109 9.23154e-4,17.6439 V 14.3545 C -0.00354216,13.1875 0.00819182,12.0205 0.0361215,10.8538 L 0.0473208,10.5435 C 0.0601202,10.1835 0.0761193,9.8299 0.0953183,9.40432 0.175314,7.70041 0.4441,6.54046 0.83928,5.51972 1.24104,4.45082 1.87238,3.48306 2.68879,2.68466 3.48729,1.87106 4.45372,1.24152 5.52064,0.839957 6.54139,0.444777 7.70133,0.175991 9.40524,0.095995 9.83082,0.076796 10.186,0.0607968 10.5444,0.0479975 l 0.3104,-0.0095996 c 1.1666,-0.02842608 2.3336,-0.0406933 3.5006,-0.0367981 z"
     fill="#d7b56d"
     id="path1"
     sodipodi:nodetypes="cccccccccccccccccccccccccccccccsccccccccccccccc" /><style
     type="text/css"
     id="style1">
  .st0{fill-rule:evenodd;clip-rule:evenodd;fill:#FFFFFF;}
 </style><g
     id="g6"
     style="fill:#c8a35d;fill-opacity:1"
     transform="translate(-15.350551,-9.6382814)">
  
  
  
  
  
  
 <path
   class="st0"
   d="m 37.194209,21.675146 c -1.026112,-0.04104 -2.052224,0.246266 -2.996247,0.779845 -0.697756,0.410444 -0.697756,0.410444 -0.697756,-0.45149 0,-0.287311 0,-0.533578 0,-0.82089 0,-1.026111 0,-2.052223 0,-3.078336 0,-0.779844 -0.123134,-0.902978 -0.902979,-0.902978 -0.246267,0 -0.45149,0 -0.697756,0 -0.738801,0 -0.779846,0.04104 -0.779846,0.7388 0,1.559691 0,3.078337 0,4.638027 v 0 c 0,1.55969 0,3.078336 0,4.638026 0,0.287312 -0.04104,0.574624 0.205222,0.738801 0.492535,0.3694 1.026113,0.738801 1.600735,1.026112 0.287312,0.164178 0.533579,0 0.574624,-0.328356 0.04104,-0.328356 0.04104,-0.615667 0,-0.944023 -0.04104,-0.7388 0.205222,-1.436557 0.615667,-2.052224 1.395512,-2.175357 4.391759,-2.257446 5.910405,-0.205222 0.820889,1.067157 0.944023,2.298491 0.738801,3.57087 -0.164179,0.944023 -0.656712,1.682823 -1.477601,2.257446 -1.354469,0.944023 -2.83207,1.026112 -4.350716,0.615668 -1.436556,-0.410446 -2.667892,-1.231336 -3.858181,-2.052225 -0.902978,-0.615667 -1.723868,-1.313423 -2.626846,-1.929091 -1.477602,-1.067156 -3.160426,-1.436556 -4.966383,-1.026111 -1.92909,0.451489 -3.324603,1.600735 -4.104448,3.406692 -0.246267,0.533578 -0.08209,0.738801 0.492534,0.779845 0.492533,0 0.985067,0 1.477601,0 0.328356,0 0.574622,-0.123133 0.697756,-0.410446 0.04104,-0.08208 0.123134,-0.205222 0.164179,-0.28731 0.65671,-1.067157 1.847001,-1.559691 3.078335,-1.231335 0.533578,0.164178 1.067156,0.369401 1.55969,0.697756 1.108201,0.697756 2.134313,1.436557 3.160426,2.216403 2.093268,1.55969 4.30967,2.66789 7.05965,2.421624 1.847001,-0.164178 3.406692,-0.82089 4.596982,-2.257447 0.944023,-1.1082 1.395512,-2.421625 1.395512,-3.899226 0,-1.313423 -0.205222,-2.544757 -0.902978,-3.652959 -1.026112,-1.92909 -2.74998,-2.914157 -4.966382,-2.996246 z"
   id="path1-0"
   style="fill:#ffffff;fill-opacity:1;stroke-width:0.410445">
  </path></g></svg>
