<?xml version="1.0" encoding="UTF-8" standalone="no"?>
<svg
   width="23.92824"
   height="25.001846"
   viewBox="0 0 23.92824 25.001846"
   fill="none"
   version="1.1"
   id="svg1"
   sodipodi:docname="logo.svg"
   inkscape:version="1.3.2 (091e20e, 2023-11-25, custom)"
   inkscape:export-filename="logo2.svg"
   inkscape:export-xdpi="96"
   inkscape:export-ydpi="96"
   xmlns:inkscape="http://www.inkscape.org/namespaces/inkscape"
   xmlns:sodipodi="http://sodipodi.sourceforge.net/DTD/sodipodi-0.dtd"
   xmlns="http://www.w3.org/2000/svg"
   xmlns:svg="http://www.w3.org/2000/svg">
  <sodipodi:namedview
     id="namedview1"
     pagecolor="#ffffff"
     bordercolor="#000000"
     borderopacity="0.25"
     inkscape:showpageshadow="2"
     inkscape:pageopacity="0.0"
     inkscape:pagecheckerboard="0"
     inkscape:deskcolor="#d1d1d1"
     inkscape:zoom="16"
     inkscape:cx="24.40625"
     inkscape:cy="13.40625"
     inkscape:window-width="1920"
     inkscape:window-height="991"
     inkscape:window-x="2391"
     inkscape:window-y="272"
     inkscape:window-maximized="1"
     inkscape:current-layer="g7">
    <inkscape:page
       x="0"
       y="0"
       width="23.92824"
       height="25.001846"
       id="page2"
       margin="0"
       bleed="0" />
  </sodipodi:namedview>
  <defs
     id="defs1" />
  <g
     inkscape:groupmode="layer"
     id="layer1"
     inkscape:label="Layer 1"
     transform="translate(-0.07200886)">
    <rect
       style="fill:#d7b56d;stroke-width:4.05804"
       id="rect2"
       width="0.65410358"
       height="25.001846"
       x="0.072008863"
       y="0" />
    <rect
       style="fill:#d7b56d;stroke-width:1.85439"
       id="rect3-5"
       width="4.296875"
       height="0.4609375"
       x="0.70337498"
       y="4.991889e-07" />
    <rect
       style="fill:#d7b56d;stroke-width:1.85439"
       id="rect3-5-0"
       width="4.296875"
       height="0.4609375"
       x="0.70300001"
       y="24.540625" />
  </g>
  <g
     inkscape:groupmode="layer"
     id="g7"
     inkscape:label="Layer 1"
     transform="matrix(-1,0,0,1,52.00025,0)">
    <rect
       style="fill:#d7b56d;stroke-width:4.05804"
       id="rect5"
       width="0.65410358"
       height="25.001846"
       x="28.07201"
       y="0" />
    <rect
       style="fill:#d7b56d;stroke-width:1.85439"
       id="rect6"
       width="4.296875"
       height="0.4609375"
       x="28.703375"
       y="4.7683716e-07" />
    <rect
       style="fill:#d7b56d;stroke-width:1.85439"
       id="rect7"
       width="4.296875"
       height="0.4609375"
       x="28.702999"
       y="24.540625" />
    <path
       d="m 13.718,9.7595 h 1.248 c -0.168,-1.704 -1.848,-2.964 -4.104,-2.964 -2.868,0 -4.596,1.788 -4.596,4.56 0,2.736 1.752,4.56 4.452,4.56 1.524,0 2.688,-0.588 3.36,-1.68 l 0.12,1.452 h 0.852 v -4.644 h -3.888 v 1.14 h 2.748 c -0.156,1.56 -1.392,2.58 -3.18,2.58 -1.968,0 -3.228,-1.308 -3.228,-3.408 0,-2.1 1.248,-3.408 3.264,-3.408 1.572,0 2.628,0.66 2.952,1.812 z m 22.16399,-0.144 c 0,1.2 0,-1.212 0,0 z"
       id="text7"
       style="font-family:'Swiss 721 Extended';-inkscape-font-specification:'Swiss 721 Extended';white-space:pre;fill:#d7b56d"
       transform="matrix(-1.3343873,0,0,1.3914252,54.573779,-3.3474292)"
       aria-label="GRIP"
       sodipodi:nodetypes="ccssscccccccssscss" />
  </g>
</svg>
